<svg width="30" height="31" fill="none" xmlns="http://www.w3.org/2000/svg"><g clip-path="url('#clip0_811_1246')"><mask id="path-1-outside-1_811_1246" maskUnits="userSpaceOnUse" x="1.759" y="0" width="29" height="26" fill="#000"><path fill="#fff" d="M1.759 0h29v26h-29z"/><path d="M29.575 4.53h-6.553l-1.581-1.582a.425.425 0 0 0-.517-.065l-1.64.967a7.726 7.726 0 0 0-1.66-.688l-.476-1.843A.425.425 0 0 0 16.737 1h-2.474a.425.425 0 0 0-.411.319l-.476 1.843a7.717 7.717 0 0 0-1.66.688l-1.64-.967a.424.424 0 0 0-.516.065L7.978 4.53H5.869a.425.425 0 1 0 0 .85h1.974l.53.898H3.184a.425.425 0 0 0-.425.425v14.868c0 .235.19.425.425.425h24.632c.235 0 .425-.19.425-.425v-8.664a.425.425 0 1 0-.85 0v8.24H3.61V7.128h4.957a7.72 7.72 0 0 0-.542 1.386l-1.843.476a.425.425 0 0 0-.319.411v2.474c0 .193.131.363.319.411l1.843.476c.165.579.395 1.136.688 1.66l-.967 1.64a.425.425 0 0 0 .066.516l1.749 1.75c.137.137.349.163.516.065l1.64-.967a7.72 7.72 0 0 0 1.66.688l.476 1.843a.425.425 0 0 0 .411.319h2.474a.425.425 0 0 0 .411-.319l.476-1.844a7.718 7.718 0 0 0 1.66-.687l1.64.967c.167.098.38.072.516-.066l1.75-1.749a.425.425 0 0 0 .065-.516l-.967-1.64a7.718 7.718 0 0 0 .688-1.66l1.843-.476a.425.425 0 0 0 .319-.411V9.4a.425.425 0 0 0-.319-.411l-1.843-.476a7.72 7.72 0 0 0-.542-1.386h4.957v3.928a.425.425 0 0 0 .85 0V6.703a.425.425 0 0 0-.425-.425h-5.189l.53-.898h5.993v19.297h-7.425a.425.425 0 1 0 0 .85h7.85c.235 0 .425-.191.425-.426V4.955a.425.425 0 0 0-.425-.425Zm-5.287 5.2v1.816L22.523 12a.425.425 0 0 0-.306.31 6.875 6.875 0 0 1-.785 1.894.424.424 0 0 0-.002.435l.926 1.57-1.284 1.284-1.57-.926a.425.425 0 0 0-.435.002 6.874 6.874 0 0 1-1.895.785.425.425 0 0 0-.309.306l-.455 1.765h-1.816l-.455-1.765a.425.425 0 0 0-.31-.306 6.872 6.872 0 0 1-1.894-.785.425.425 0 0 0-.435-.002l-1.57.926-1.284-1.284.926-1.57a.425.425 0 0 0-.002-.435 6.872 6.872 0 0 1-.785-1.895.425.425 0 0 0-.306-.309l-1.765-.455V9.73l1.765-.455a.425.425 0 0 0 .306-.31c.166-.668.43-1.305.785-1.894.14-.234.017-.419-.09-.591l-.834-1.415 1.284-1.283 1.57.926c.135.08.302.079.435-.002a6.874 6.874 0 0 1 1.895-.785.425.425 0 0 0 .309-.306l.455-1.765h1.816l.455 1.765a.425.425 0 0 0 .31.306c.668.166 1.305.43 1.894.785.133.08.3.081.435.002l1.57-.926 1.284 1.283-.834 1.414c-.107.173-.23.358-.09.592a6.87 6.87 0 0 1 .785 1.894c.037.152.155.27.306.31l1.765.455Z"/></mask><path d="M29.575 4.53h-6.553l-1.581-1.582a.425.425 0 0 0-.517-.065l-1.64.967a7.726 7.726 0 0 0-1.66-.688l-.476-1.843A.425.425 0 0 0 16.737 1h-2.474a.425.425 0 0 0-.411.319l-.476 1.843a7.717 7.717 0 0 0-1.66.688l-1.64-.967a.424.424 0 0 0-.516.065L7.978 4.53H5.869a.425.425 0 1 0 0 .85h1.974l.53.898H3.184a.425.425 0 0 0-.425.425v14.868c0 .235.19.425.425.425h24.632c.235 0 .425-.19.425-.425v-8.664a.425.425 0 1 0-.85 0v8.24H3.61V7.128h4.957a7.72 7.72 0 0 0-.542 1.386l-1.843.476a.425.425 0 0 0-.319.411v2.474c0 .193.131.363.319.411l1.843.476c.165.579.395 1.136.688 1.66l-.967 1.64a.425.425 0 0 0 .066.516l1.749 1.75c.137.137.349.163.516.065l1.64-.967a7.72 7.72 0 0 0 1.66.688l.476 1.843a.425.425 0 0 0 .411.319h2.474a.425.425 0 0 0 .411-.319l.476-1.844a7.718 7.718 0 0 0 1.66-.687l1.64.967c.167.098.38.072.516-.066l1.75-1.749a.425.425 0 0 0 .065-.516l-.967-1.64a7.718 7.718 0 0 0 .688-1.66l1.843-.476a.425.425 0 0 0 .319-.411V9.4a.425.425 0 0 0-.319-.411l-1.843-.476a7.72 7.72 0 0 0-.542-1.386h4.957v3.928a.425.425 0 0 0 .85 0V6.703a.425.425 0 0 0-.425-.425h-5.189l.53-.898h5.993v19.297h-7.425a.425.425 0 1 0 0 .85h7.85c.235 0 .425-.191.425-.426V4.955a.425.425 0 0 0-.425-.425Zm-5.287 5.2v1.816L22.523 12a.425.425 0 0 0-.306.31 6.875 6.875 0 0 1-.785 1.894.424.424 0 0 0-.002.435l.926 1.57-1.284 1.284-1.57-.926a.425.425 0 0 0-.435.002 6.874 6.874 0 0 1-1.895.785.425.425 0 0 0-.309.306l-.455 1.765h-1.816l-.455-1.765a.425.425 0 0 0-.31-.306 6.872 6.872 0 0 1-1.894-.785.425.425 0 0 0-.435-.002l-1.57.926-1.284-1.284.926-1.57a.425.425 0 0 0-.002-.435 6.872 6.872 0 0 1-.785-1.895.425.425 0 0 0-.306-.309l-1.765-.455V9.73l1.765-.455a.425.425 0 0 0 .306-.31c.166-.668.43-1.305.785-1.894.14-.234.017-.419-.09-.591l-.834-1.415 1.284-1.283 1.57.926c.135.08.302.079.435-.002a6.874 6.874 0 0 1 1.895-.785.425.425 0 0 0 .309-.306l.455-1.765h1.816l.455 1.765a.425.425 0 0 0 .31.306c.668.166 1.305.43 1.894.785.133.08.3.081.435.002l1.57-.926 1.284 1.283-.834 1.414c-.107.173-.23.358-.09.592a6.87 6.87 0 0 1 .785 1.894c.037.152.155.27.306.31l1.765.455Z" fill="#6C23E2"/><path d="M29.575 4.53h-6.553l-1.581-1.582a.425.425 0 0 0-.517-.065l-1.64.967a7.726 7.726 0 0 0-1.66-.688l-.476-1.843A.425.425 0 0 0 16.737 1h-2.474a.425.425 0 0 0-.411.319l-.476 1.843a7.717 7.717 0 0 0-1.66.688l-1.64-.967a.424.424 0 0 0-.516.065L7.978 4.53H5.869a.425.425 0 1 0 0 .85h1.974l.53.898H3.184a.425.425 0 0 0-.425.425v14.868c0 .235.19.425.425.425h24.632c.235 0 .425-.19.425-.425v-8.664a.425.425 0 1 0-.85 0v8.24H3.61V7.128h4.957a7.72 7.72 0 0 0-.542 1.386l-1.843.476a.425.425 0 0 0-.319.411v2.474c0 .193.131.363.319.411l1.843.476c.165.579.395 1.136.688 1.66l-.967 1.64a.425.425 0 0 0 .066.516l1.749 1.75c.137.137.349.163.516.065l1.64-.967a7.72 7.72 0 0 0 1.66.688l.476 1.843a.425.425 0 0 0 .411.319h2.474a.425.425 0 0 0 .411-.319l.476-1.844a7.718 7.718 0 0 0 1.66-.687l1.64.967c.167.098.38.072.516-.066l1.75-1.749a.425.425 0 0 0 .065-.516l-.967-1.64a7.718 7.718 0 0 0 .688-1.66l1.843-.476a.425.425 0 0 0 .319-.411V9.4a.425.425 0 0 0-.319-.411l-1.843-.476a7.72 7.72 0 0 0-.542-1.386h4.957v3.928a.425.425 0 0 0 .85 0V6.703a.425.425 0 0 0-.425-.425h-5.189l.53-.898h5.993v19.297h-7.425a.425.425 0 1 0 0 .85h7.85c.235 0 .425-.191.425-.426V4.955a.425.425 0 0 0-.425-.425Zm-5.287 5.2v1.816L22.523 12a.425.425 0 0 0-.306.31 6.875 6.875 0 0 1-.785 1.894.424.424 0 0 0-.002.435l.926 1.57-1.284 1.284-1.57-.926a.425.425 0 0 0-.435.002 6.874 6.874 0 0 1-1.895.785.425.425 0 0 0-.309.306l-.455 1.765h-1.816l-.455-1.765a.425.425 0 0 0-.31-.306 6.872 6.872 0 0 1-1.894-.785.425.425 0 0 0-.435-.002l-1.57.926-1.284-1.284.926-1.57a.425.425 0 0 0-.002-.435 6.872 6.872 0 0 1-.785-1.895.425.425 0 0 0-.306-.309l-1.765-.455V9.73l1.765-.455a.425.425 0 0 0 .306-.31c.166-.668.43-1.305.785-1.894.14-.234.017-.419-.09-.591l-.834-1.415 1.284-1.283 1.57.926c.135.08.302.079.435-.002a6.874 6.874 0 0 1 1.895-.785.425.425 0 0 0 .309-.306l.455-1.765h1.816l.455 1.765a.425.425 0 0 0 .31.306c.668.166 1.305.43 1.894.785.133.08.3.081.435.002l1.57-.926 1.284 1.283-.834 1.414c-.107.173-.23.358-.09.592a6.87 6.87 0 0 1 .785 1.894c.037.152.155.27.306.31l1.765.455Z" stroke="#6C23E2" stroke-width=".3" mask="url('#path-1-outside-1_811_1246')"/><path d="M16.38 23.842a.5.5 0 1 0 0-1h-1.76a.5.5 0 1 0 0 1h1.76Z" fill="#6C23E2" stroke="#6C23E2" stroke-width=".15"/><path d="M20.278 29.075h-9.556v-.76h9.556v.76Zm.5-1.759H17.76v-1.715h2.115a.5.5 0 1 0 0-1H1.924V5.456h2.094a.5.5 0 1 0 0-1H1.425a.5.5 0 0 0-.5.5v20.146a.5.5 0 0 0 .5.5H13.24v1.715h-3.02a.5.5 0 0 0-.499.5v1.76a.5.5 0 0 0 .5.499h10.556a.5.5 0 0 0 .5-.5v-1.76a.5.5 0 0 0-.5-.499Zm-6.538-1.715h2.52v1.715h-2.52v-1.715Z" fill="#6C23E2" stroke="#6C23E2" stroke-width=".15"/><path d="M15.5 4.47a6.174 6.174 0 0 0-6.167 6.168c0 3.4 2.766 6.167 6.167 6.167 3.4 0 6.167-2.766 6.167-6.167 0-3.4-2.766-6.167-6.167-6.167Zm0 11.336a5.174 5.174 0 0 1-5.168-5.168A5.174 5.174 0 0 1 15.5 5.47a5.174 5.174 0 0 1 5.168 5.168 5.174 5.174 0 0 1-5.168 5.168Z" fill="#6C23E2" stroke="#6C23E2" stroke-width=".15"/><path d="M18.536 7.924h.001l-.012-.008c-.352-.216-.694-.306-1.022-.26-.328.047-.63.23-.908.536l-.005.005-1.68 2.24-.629-.629c-.54-.54-1.42-.54-1.96 0s-.54 1.42 0 1.96l1.759 1.76c.59.59 1.578.533 2.09-.149l2.638-3.518.004-.006c.216-.353.306-.694.26-1.022-.047-.328-.23-.63-.536-.909Zm-3.925 3.628.006.005a.554.554 0 0 0 .383.14.555.555 0 0 0 .358-.192l.006-.007 2.026-2.701a.352.352 0 0 1 .262-.152.412.412 0 0 1 .27.086c.08.06.14.144.16.236.019.09.003.191-.073.294l-2.637 3.515c-.099.103-.194.15-.284.157-.091.007-.192-.027-.304-.115l-1.757-1.756a.387.387 0 0 1-.002-.545.437.437 0 0 1 .276-.115c.086 0 .177.035.276.115l1.034 1.035ZM4.944 16.88h1.76a.5.5 0 1 0 0-1h-1.76a.5.5 0 1 0 0 1ZM4.944 18.639h2.639a.5.5 0 1 0 0-1h-2.64a.5.5 0 1 0 0 1ZM4.944 20.35h5.278a.5.5 0 1 0 0-.999H4.944a.5.5 0 1 0 0 1ZM26.056 15.88h-1.76a.5.5 0 1 0 0 1h1.76a.5.5 0 0 0 0-1ZM26.056 17.64h-2.639a.5.5 0 1 0 0 .999h2.64a.5.5 0 1 0 0-1ZM26.056 19.399H20.8a.5.5 0 1 0 0 1h5.257a.5.5 0 1 0 0-1Z" fill="#6C23E2" stroke="#6C23E2" stroke-width=".15"/></g><defs><clipPath id="clip0_811_1246"><path fill="#fff" transform="translate(.125 .281)" d="M0 0h29.75v29.75H0z"/></clipPath></defs></svg>