<svg width="30" height="27" fill="none" xmlns="http://www.w3.org/2000/svg"><mask id="path-1-outside-1_1006_2164" maskUnits="userSpaceOnUse" x="-.77" y="-.844" width="31" height="28" fill="#000"><path fill="#fff" d="M-.77-.844h31v28h-31z"/><path d="M29.049 23.271h-2.442V10.33a.433.433 0 0 0-.865 0v12.942h-2.143V5.097a.606.606 0 0 0-.606-.606h-.931l2.608-3.31 2.609 3.31h-.931a.607.607 0 0 0-.606.606V8.31a.433.433 0 0 0 .865 0V5.357h1.207c.234 0 .443-.131.545-.342a.602.602 0 0 0-.07-.64L25.147.388a.602.602 0 0 0-.476-.23.602.602 0 0 0-.476.23l-3.143 3.989a.601.601 0 0 0-.07.64c.102.21.311.34.545.34h1.207v17.915H20.16v-8.756h1.207c.234 0 .443-.13.545-.341a.601.601 0 0 0-.069-.64L18.7 9.547a.602.602 0 0 0-.476-.231.602.602 0 0 0-.475.23l-3.144 3.99a.601.601 0 0 0-.07.639c.103.21.311.341.546.341h1.206v8.756h-2.572v-8.21a.433.433 0 0 0-.866 0v8.21h-2.143V10.237a.606.606 0 0 0-.606-.606h-.93l2.608-3.31 2.608 3.31h-.93a.607.607 0 0 0-.607.606v2.804a.433.433 0 1 0 .866 0v-2.544h1.207c.234 0 .443-.131.545-.342a.601.601 0 0 0-.07-.64l-3.143-3.988a.603.603 0 0 0-.952 0L8.157 9.516a.601.601 0 0 0-.07.64c.103.21.312.34.546.34H9.84v12.775H9.46a.433.433 0 1 0 0 .866h19.444v1.154H1.095v-1.154h6.347a.433.433 0 1 0 0-.866h-.175v-3.89h1.207c.234 0 .443-.13.545-.34a.601.601 0 0 0-.07-.64l-3.143-3.989a.603.603 0 0 0-.952 0l-3.144 3.99a.601.601 0 0 0-.07.639c.103.21.312.34.546.34h1.207v3.89H.95a.722.722 0 0 0-.721.721v1.443c0 .398.323.721.721.721h28.098a.722.722 0 0 0 .721-.721v-1.442a.722.722 0 0 0-.721-.722Zm-13.766-9.2v-.001Zm1.263-.421h-.931l2.608-3.31 2.61 3.31H19.9a.607.607 0 0 0-.606.606v9.015h-2.143v-9.015a.606.606 0 0 0-.606-.606ZM3.652 18.516h-.93l2.608-3.31 2.608 3.31h-.93a.606.606 0 0 0-.607.606v4.15H4.258v-4.15a.606.606 0 0 0-.606-.606Z"/></mask><path d="M29.049 23.271h-2.442V10.33a.433.433 0 0 0-.865 0v12.942h-2.143V5.097a.606.606 0 0 0-.606-.606h-.931l2.608-3.31 2.609 3.31h-.931a.607.607 0 0 0-.606.606V8.31a.433.433 0 0 0 .865 0V5.357h1.207c.234 0 .443-.131.545-.342a.602.602 0 0 0-.07-.64L25.147.388a.602.602 0 0 0-.476-.23.602.602 0 0 0-.476.23l-3.143 3.989a.601.601 0 0 0-.07.64c.102.21.311.34.545.34h1.207v17.915H20.16v-8.756h1.207c.234 0 .443-.13.545-.341a.601.601 0 0 0-.069-.64L18.7 9.547a.602.602 0 0 0-.476-.231.602.602 0 0 0-.475.23l-3.144 3.99a.601.601 0 0 0-.07.639c.103.21.311.341.546.341h1.206v8.756h-2.572v-8.21a.433.433 0 0 0-.866 0v8.21h-2.143V10.237a.606.606 0 0 0-.606-.606h-.93l2.608-3.31 2.608 3.31h-.93a.607.607 0 0 0-.607.606v2.804a.433.433 0 1 0 .866 0v-2.544h1.207c.234 0 .443-.131.545-.342a.601.601 0 0 0-.07-.64l-3.143-3.988a.603.603 0 0 0-.952 0L8.157 9.516a.601.601 0 0 0-.07.64c.103.21.312.34.546.34H9.84v12.775H9.46a.433.433 0 1 0 0 .866h19.444v1.154H1.095v-1.154h6.347a.433.433 0 1 0 0-.866h-.175v-3.89h1.207c.234 0 .443-.13.545-.34a.601.601 0 0 0-.07-.64l-3.143-3.989a.603.603 0 0 0-.952 0l-3.144 3.99a.601.601 0 0 0-.07.639c.103.21.312.34.546.34h1.207v3.89H.95a.722.722 0 0 0-.721.721v1.443c0 .398.323.721.721.721h28.098a.722.722 0 0 0 .721-.721v-1.442a.722.722 0 0 0-.721-.722Zm-13.766-9.2v-.001Zm1.263-.421h-.931l2.608-3.31 2.61 3.31H19.9a.607.607 0 0 0-.606.606v9.015h-2.143v-9.015a.606.606 0 0 0-.606-.606ZM3.652 18.516h-.93l2.608-3.31 2.608 3.31h-.93a.606.606 0 0 0-.607.606v4.15H4.258v-4.15a.606.606 0 0 0-.606-.606Z" fill="#6C23E2"/><path d="M26.607 23.271h-.15v.15h.15v-.15Zm-.865 0v.15h.15v-.15h-.15Zm-2.143 0h-.15v.15h.15v-.15Zm-1.537-18.78-.118-.093-.192.243h.31v-.15Zm2.608-3.31.118-.092-.118-.15-.118.15.118.092Zm2.609 3.31v.15h.309l-.191-.243-.118.093Zm-.672.866v-.15h-.15v.15h.15Zm1.683-.981-.118.093.118-.093ZM25.146.386l.118-.092-.118.093Zm-.952 0-.117-.092.117.093Zm-3.143 3.99.117.093-.117-.093Zm-.07.64.135-.066-.135.065Zm1.752.34h.15v-.15h-.15v.15Zm0 17.915v.15h.15v-.15h-.15Zm-2.573 0h-.15v.15h.15v-.15Zm0-8.756v-.15h-.15v.15h.15Zm1.683-.98-.118.092.118-.092ZM18.7 9.545l-.118.094.118-.093Zm-.951 0 .117.094-.117-.093Zm-3.144 3.99-.118-.093.118.093Zm-.07.639.135-.066-.135.066Zm1.752.341h.15v-.15h-.15v.15Zm0 8.756v.15h.15v-.15h-.15Zm-2.572 0h-.15v.15h.15v-.15Zm-.866 0v.15h.15v-.15h-.15Zm-2.143 0h-.15v.15h.15v-.15ZM9.168 9.631l-.118-.093-.191.243h.31v-.15Zm2.609-3.31.118-.092-.118-.15-.118.15.118.092Zm2.608 3.31v.15h.31l-.192-.243-.118.093Zm-.671.866v-.15h-.15v.15h.15Zm1.752-.342-.135-.065.135.065Zm-.07-.64-.117.094.117-.093Zm-3.143-3.988-.118.093.118-.093Zm-.952 0 .118.093-.118-.093ZM8.157 9.516l.118.093-.118-.093Zm1.683.98h.15v-.15h-.15v.15Zm0 12.775v.15h.15v-.15h-.15Zm19.065.866h.15v-.15h-.15v.15Zm0 1.154v.15h.15v-.15h-.15Zm-27.81 0h-.15v.15h.15v-.15Zm0-1.154v-.15h-.15v.15h.15Zm6.172-.866h-.15v.15h.15v-.15Zm0-3.89v-.15h-.15v.15h.15Zm1.683-.98-.118.093.118-.093Zm-3.144-3.989.117-.093-.117.093Zm-.952 0-.118-.093.118.093Zm-3.144 3.99-.118-.094.118.093Zm1.683.98h.15v-.15h-.15v.15Zm0 3.89v.15h.15v-.15h-.15Zm11.89-9.202h-.15v.427l.267-.333-.117-.094Zm0 0 .118.094-.223-.2.106.106Zm.332-.42-.118-.093-.191.243h.309v-.15Zm2.608-3.31.118-.093-.118-.15-.117.15.117.093Zm2.61 3.31v.15h.308l-.191-.243-.118.093Zm-1.538 9.621v.15h.15v-.15h-.15Zm-2.143 0h-.15v.15h.15v-.15Zm-14.43-4.755-.119-.092-.191.242h.31v-.15Zm2.608-3.31.118-.092-.118-.15-.118.15.118.093Zm2.608 3.31v.15h.31l-.192-.242-.118.092Zm-1.537 4.755v.15h.15v-.15h-.15Zm-2.143 0h-.15v.15h.15v-.15Zm24.791-.15h-2.442v.3h2.442v-.3Zm-2.292.15V10.33h-.3v12.942h.3Zm0-12.942a.583.583 0 0 0-.582-.583v.3c.156 0 .282.127.282.283h.3Zm-.582-.583a.583.583 0 0 0-.583.583h.3c0-.156.126-.283.283-.283v-.3Zm-.583.583v12.942h.3V10.33h-.3Zm.15 12.792h-2.143v.3h2.143v-.3Zm-1.994.15V5.097h-.3V23.27h.3Zm0-18.174a.756.756 0 0 0-.755-.756v.3c.25 0 .456.205.456.456h.3Zm-.755-.756h-.931v.3h.93v-.3Zm-.814.243 2.609-3.31-.236-.185-2.608 3.31.235.185Zm2.373-3.31 2.609 3.31.236-.186-2.609-3.31-.236.186Zm2.727 3.067h-.931v.3h.93v-.3Zm-.931 0a.756.756 0 0 0-.756.756h.3c0-.251.204-.456.456-.456v-.3Zm-.756.756V8.31h.3V5.097h-.3Zm0 3.213c0 .322.26.582.583.582v-.3a.283.283 0 0 1-.283-.282h-.3Zm.583.582c.321 0 .582-.26.582-.582h-.3a.283.283 0 0 1-.282.282v.3Zm.582-.582V5.357h-.3V8.31h.3Zm-.15-2.803h1.207v-.3h-1.207v.3Zm1.207 0a.751.751 0 0 0 .68-.426l-.27-.131a.452.452 0 0 1-.41.257v.3Zm.68-.426a.752.752 0 0 0-.086-.798l-.236.186c.11.138.13.322.052.48l.27.132Zm-.086-.798L25.264.294l-.236.186 3.144 3.989.236-.186ZM25.264.294a.752.752 0 0 0-.594-.288v.3c.141 0 .271.063.358.174l.236-.186ZM24.67.006a.753.753 0 0 0-.593.288l.235.186a.453.453 0 0 1 .358-.174v-.3Zm-.593.288-3.144 3.989.235.186 3.144-3.99-.235-.185Zm-3.144 3.989a.751.751 0 0 0-.087.798l.27-.131a.451.451 0 0 1 .052-.481l-.235-.186Zm-.087.798a.751.751 0 0 0 .68.426v-.3a.451.451 0 0 1-.41-.257l-.27.13Zm.68.426h1.207v-.3h-1.207v.3Zm1.057-.15V23.27h.3V5.357h-.3Zm.15 17.764H20.16v.3h2.573v-.3Zm-2.422.15v-8.756h-.3v8.756h.3Zm-.15-8.606h1.206v-.3H20.16v.3Zm1.206 0a.752.752 0 0 0 .68-.425l-.27-.132a.452.452 0 0 1-.41.257v.3Zm.68-.425a.752.752 0 0 0-.086-.798l-.236.185c.11.14.13.323.052.481l.27.131Zm-.086-.798-3.144-3.99-.236.187 3.144 3.988.236-.185Zm-3.144-3.99a.752.752 0 0 0-.593-.287v.3c.14 0 .27.063.357.174l.236-.186Zm-.593-.287a.752.752 0 0 0-.594.288l.236.186a.452.452 0 0 1 .358-.174v-.3Zm-.594.288-3.144 3.989.236.185 3.144-3.988-.236-.186Zm-3.144 3.989a.751.751 0 0 0-.086.797l.27-.13a.452.452 0 0 1 .052-.482l-.236-.185Zm-.086.797a.751.751 0 0 0 .68.426v-.3a.452.452 0 0 1-.41-.257l-.27.131Zm.68.426h1.206v-.3H15.08v.3Zm1.056-.15v8.756h.3v-8.756h-.3Zm.15 8.606h-2.572v.3h2.572v-.3Zm-2.422.15v-8.21h-.3v8.21h.3Zm0-8.21a.583.583 0 0 0-.583-.584v.3c.156 0 .283.127.283.283h.3Zm-.583-.584a.583.583 0 0 0-.583.583h.3c0-.156.127-.283.283-.283v-.3Zm-.583.583v8.211h.3v-8.21h-.3Zm.15 8.061h-2.143v.3h2.143v-.3Zm-1.993.15V10.237h-.3v13.034h.3Zm0-13.034a.756.756 0 0 0-.756-.756v.3c.251 0 .456.205.456.456h.3Zm-.756-.756h-.93v.3h.93v-.3Zm-.813.243 2.609-3.31-.236-.185-2.609 3.31.236.185Zm2.373-3.31 2.608 3.31.236-.186-2.608-3.31-.236.186Zm2.726 3.067h-.93v.3h.93v-.3Zm-.93 0a.756.756 0 0 0-.757.756h.3c0-.251.205-.456.456-.456v-.3Zm-.757.756v2.804h.3v-2.804h-.3Zm0 2.804c0 .322.261.582.583.582v-.3a.283.283 0 0 1-.283-.282h-.3Zm.583.582c.322 0 .583-.26.583-.582h-.3a.283.283 0 0 1-.283.282v.3Zm.583-.582v-2.544h-.3v2.544h.3Zm-.15-2.394h1.207v-.3h-1.207v.3Zm1.207 0a.752.752 0 0 0 .68-.426l-.27-.131a.452.452 0 0 1-.41.257v.3Zm.68-.426a.751.751 0 0 0-.087-.798l-.235.186c.109.138.129.322.052.48l.27.132Zm-.087-.798L12.37 5.434l-.235.186 3.144 3.989.235-.186ZM12.37 5.434a.752.752 0 0 0-.593-.288v.3c.14 0 .27.063.358.174l.235-.186Zm-.593-.288a.752.752 0 0 0-.594.288l.236.186a.453.453 0 0 1 .358-.174v-.3Zm-.594.288L8.04 9.423l.236.186 3.144-3.99-.236-.185ZM8.04 9.423a.751.751 0 0 0-.086.798l.27-.131a.451.451 0 0 1 .052-.481l-.236-.186Zm-.086.798a.751.751 0 0 0 .68.426v-.3a.451.451 0 0 1-.41-.257l-.27.13Zm.68.426H9.84v-.3H8.633v.3Zm1.057-.15V23.27h.3V10.497h-.3Zm.15 12.624H9.46v.3h.379v-.3Zm-.379 0a.583.583 0 0 0-.583.583h.3c0-.156.127-.283.283-.283v-.3Zm-.583.583c0 .322.261.583.583.583v-.3a.283.283 0 0 1-.283-.283h-.3Zm.583.583h19.444v-.3H9.46v.3Zm19.294-.15v1.154h.3v-1.154h-.3Zm.15 1.004H1.095v.3h27.81v-.3Zm-27.66.15v-1.154h-.3v1.154h.3Zm-.15-1.004h6.347v-.3H1.095v.3Zm6.347 0c.322 0 .583-.261.583-.583h-.3a.283.283 0 0 1-.283.283v.3Zm.583-.583a.583.583 0 0 0-.583-.583v.3c.156 0 .283.127.283.283h.3Zm-.583-.583h-.175v.3h.175v-.3Zm-.025.15v-3.89h-.3v3.89h.3Zm-.15-3.74h1.207v-.3H7.267v.3Zm1.207 0a.751.751 0 0 0 .68-.425l-.27-.131a.452.452 0 0 1-.41.257v.3Zm.68-.425a.751.751 0 0 0-.087-.798l-.235.186c.109.139.129.322.052.481l.27.13Zm-.087-.798L5.923 14.32l-.235.186 3.144 3.989.235-.186ZM5.923 14.32a.752.752 0 0 0-.593-.288v.3c.14 0 .27.064.358.174l.235-.186Zm-.593-.288a.753.753 0 0 0-.594.288l.236.186a.453.453 0 0 1 .358-.174v-.3Zm-.594.288-3.144 3.99.236.185 3.144-3.989-.236-.186Zm-3.144 3.99a.751.751 0 0 0-.086.797l.27-.131a.451.451 0 0 1 .052-.481l-.236-.186Zm-.086.797a.752.752 0 0 0 .68.426v-.3a.452.452 0 0 1-.41-.257l-.27.131Zm.68.426h1.207v-.3H2.186v.3Zm1.057-.15v3.89h.3v-3.89h-.3Zm.15 3.74H.95v.3h2.442v-.3Zm-2.442 0c-.48 0-.871.39-.871.87h.3c0-.314.256-.57.571-.57v-.3Zm-.871.87v1.443h.3v-1.442h-.3Zm0 1.443c0 .48.39.871.871.871v-.3a.572.572 0 0 1-.571-.571h-.3Zm.871.871h28.098v-.3H.951v.3Zm28.098 0c.48 0 .871-.39.871-.871h-.3a.572.572 0 0 1-.571.571v.3Zm.871-.871v-1.442h-.3v1.442h.3Zm0-1.442c0-.481-.39-.872-.871-.872v.3c.315 0 .571.257.571.572h.3ZM15.433 14.07h-.3.3-.3.3Zm-.033.094-.233-.188.233.188Zm-.222-.2a.156.156 0 0 0-.013.014l-.002.003.24.18.001-.002-.002.003a.136.136 0 0 1-.012.014l-.212-.212Zm1.368-.464h-.931v.3h.93v-.3Zm-.813.243 2.608-3.31-.235-.186-2.61 3.31.236.186Zm2.373-3.31 2.608 3.31.236-.186-2.609-3.31-.235.186Zm2.726 3.067h-.931v.3h.931v-.3Zm-.931 0a.757.757 0 0 0-.756.756h.3c0-.252.205-.456.456-.456v-.3Zm-.756.756v9.015h.3v-9.015h-.3Zm.15 8.865h-2.143v.3h2.143v-.3Zm-1.993.15v-9.015h-.3v9.015h.3Zm0-9.015a.757.757 0 0 0-.756-.756v.3c.251 0 .456.204.456.456h.3Zm-13.65 4.11h-.93v.3h.93v-.3Zm-.813.243 2.609-3.31-.236-.185-2.609 3.31.236.185Zm2.373-3.31 2.609 3.31.235-.186-2.608-3.31-.236.187Zm2.726 3.067h-.93v.3h.93v-.3Zm-.93 0a.756.756 0 0 0-.757.756h.3c0-.251.205-.456.456-.456v-.3Zm-.757.756v4.15h.3v-4.15h-.3Zm.15 4H4.258v.3h2.143v-.3Zm-1.993.15v-4.15h-.3v4.15h.3Zm0-4.15a.757.757 0 0 0-.756-.756v.3c.252 0 .456.205.456.456h.3Z" fill="#6C23E2" mask="url('#path-1-outside-1_1006_2164')"/></svg>