<svg width="32" height="20" fill="none" xmlns="http://www.w3.org/2000/svg"><mask id="path-1-outside-1_1006_2161" maskUnits="userSpaceOnUse" x="0" y="-.326" width="32" height="21" fill="#000"><path fill="#fff" d="M0-.326h32v21H0z"/><path d="M30.936 9.7 26.127.942a.52.52 0 0 0-.705-.206l-2.16 1.187a.52.52 0 0 0-.206.705l.201.366a2.833 2.833 0 0 1-2.39-.1c-1.594-.653-4.143-.69-7.791-.114-.454.073-.86.323-1.131.695l-.448.619c-1.688-.45-2.015-.386-2.874-.882l.321-.584a.52.52 0 0 0-.205-.705L6.578.737a.521.521 0 0 0-.705.205L1.063 9.7a.52.52 0 0 0 .206.705l2.161 1.187a.52.52 0 0 0 .705-.205l.047-.085c.299.37.607.73.923 1.077a1.548 1.548 0 0 0 1.602 2.34 1.547 1.547 0 0 0 2.29 1.721 1.547 1.547 0 0 0 2.45 1.175 1.547 1.547 0 0 0 2.58 1.19c2.028.87 4.615 1.498 5.682-.436a2.062 2.062 0 0 0 2.197-1.684 1.993 1.993 0 0 0 1.73-2.285 1.907 1.907 0 0 0 1.453-1.996 20.34 20.34 0 0 0 2.438-1.633l.338.616a.52.52 0 0 0 .705.205l2.16-1.187a.52.52 0 0 0 .206-.705Zm-27.461.731-1.251-.687 4.309-7.847 1.25.687-4.298 7.83-.01.017Zm2.548 2.432.868-1.06a.519.519 0 0 1 .804.658l-.87 1.06c-.406.496-1.223-.141-.802-.658Zm1.786 1.915 1.974-2.41a.519.519 0 0 1 .803.659l-1.974 2.409a.519.519 0 0 1-.803-.658Zm2.336 1.243 1.316-1.606a.519.519 0 0 1 .803.658l-1.316 1.606a.519.519 0 0 1-.803-.658Zm2.45 1.291.546-.666a.52.52 0 0 1 .803.658l-.546.666a.519.519 0 0 1-.802-.657Zm9.71-4.147-3.913-2.291a.519.519 0 0 0-.525.896l3.912 2.29c.248.146.515.255.794.325a.964.964 0 0 1-.828 1.274l-3.818-2.044a.52.52 0 0 0-.49.915l3.467 1.856a1.067 1.067 0 0 1-1.282.94l-2.919-1.3a.52.52 0 0 0-.422.95l2.4 1.067c-.777 1.02-2.752.41-3.943-.07l.01-.01a1.55 1.55 0 0 0-1.502-2.508 1.552 1.552 0 0 0-1.595-2.248A1.557 1.557 0 0 0 8.98 11.71l-.154.188a1.552 1.552 0 0 0-2.737-.754l-.332.405c-.356-.399-.7-.812-1.033-1.237l3.4-6.191c.954.547 1.485.564 2.72.875l-1.69 2.335a1.039 1.039 0 0 0 .752 1.643 5.502 5.502 0 0 0 4.829-2.038 3.38 3.38 0 0 0 1.511.009c1.58.812 7.136 3.8 7.784 5.456.204.522-.52 1.472-1.726.763Zm2.379-1.727c-1.118-1.67-7.56-5.536-8.48-5.536l-.002-.008a2.408 2.408 0 0 1-1.507-.053.528.528 0 0 0-.633.226A4.363 4.363 0 0 1 9.996 7.94l2.79-3.856a.701.701 0 0 1 .452-.278c3.406-.537 5.841-.521 7.279.066a3.794 3.794 0 0 0 3.24.034l3.263 5.942c-.739.586-1.52 1.117-2.336 1.59Zm3.841-1.007-4.309-7.847 1.251-.687 4.31 7.847-1.252.687Z"/></mask><path d="M30.936 9.7 26.127.942a.52.52 0 0 0-.705-.206l-2.16 1.187a.52.52 0 0 0-.206.705l.201.366a2.833 2.833 0 0 1-2.39-.1c-1.594-.653-4.143-.69-7.791-.114-.454.073-.86.323-1.131.695l-.448.619c-1.688-.45-2.015-.386-2.874-.882l.321-.584a.52.52 0 0 0-.205-.705L6.578.737a.521.521 0 0 0-.705.205L1.063 9.7a.52.52 0 0 0 .206.705l2.161 1.187a.52.52 0 0 0 .705-.205l.047-.085c.299.37.607.73.923 1.077a1.548 1.548 0 0 0 1.602 2.34 1.547 1.547 0 0 0 2.29 1.721 1.547 1.547 0 0 0 2.45 1.175 1.547 1.547 0 0 0 2.58 1.19c2.028.87 4.615 1.498 5.682-.436a2.062 2.062 0 0 0 2.197-1.684 1.993 1.993 0 0 0 1.73-2.285 1.907 1.907 0 0 0 1.453-1.996 20.34 20.34 0 0 0 2.438-1.633l.338.616a.52.52 0 0 0 .705.205l2.16-1.187a.52.52 0 0 0 .206-.705Zm-27.461.731-1.251-.687 4.309-7.847 1.25.687-4.298 7.83-.01.017Zm2.548 2.432.868-1.06a.519.519 0 0 1 .804.658l-.87 1.06c-.406.496-1.223-.141-.802-.658Zm1.786 1.915 1.974-2.41a.519.519 0 0 1 .803.659l-1.974 2.409a.519.519 0 0 1-.803-.658Zm2.336 1.243 1.316-1.606a.519.519 0 0 1 .803.658l-1.316 1.606a.519.519 0 0 1-.803-.658Zm2.45 1.291.546-.666a.52.52 0 0 1 .803.658l-.546.666a.519.519 0 0 1-.802-.657Zm9.71-4.147-3.913-2.291a.519.519 0 0 0-.525.896l3.912 2.29c.248.146.515.255.794.325a.964.964 0 0 1-.828 1.274l-3.818-2.044a.52.52 0 0 0-.49.915l3.467 1.856a1.067 1.067 0 0 1-1.282.94l-2.919-1.3a.52.52 0 0 0-.422.95l2.4 1.067c-.777 1.02-2.752.41-3.943-.07l.01-.01a1.55 1.55 0 0 0-1.502-2.508 1.552 1.552 0 0 0-1.595-2.248A1.557 1.557 0 0 0 8.98 11.71l-.154.188a1.552 1.552 0 0 0-2.737-.754l-.332.405c-.356-.399-.7-.812-1.033-1.237l3.4-6.191c.954.547 1.485.564 2.72.875l-1.69 2.335a1.039 1.039 0 0 0 .752 1.643 5.502 5.502 0 0 0 4.829-2.038 3.38 3.38 0 0 0 1.511.009c1.58.812 7.136 3.8 7.784 5.456.204.522-.52 1.472-1.726.763Zm2.379-1.727c-1.118-1.67-7.56-5.536-8.48-5.536l-.002-.008a2.408 2.408 0 0 1-1.507-.053.528.528 0 0 0-.633.226A4.363 4.363 0 0 1 9.996 7.94l2.79-3.856a.701.701 0 0 1 .452-.278c3.406-.537 5.841-.521 7.279.066a3.794 3.794 0 0 0 3.24.034l3.263 5.942c-.739.586-1.52 1.117-2.336 1.59Zm3.841-1.007-4.309-7.847 1.251-.687 4.31 7.847-1.252.687Z" fill="#6C23E2"/><path d="M30.936 9.7 26.127.942a.52.52 0 0 0-.705-.206l-2.16 1.187a.52.52 0 0 0-.206.705l.201.366a2.833 2.833 0 0 1-2.39-.1c-1.594-.653-4.143-.69-7.791-.114-.454.073-.86.323-1.131.695l-.448.619c-1.688-.45-2.015-.386-2.874-.882l.321-.584a.52.52 0 0 0-.205-.705L6.578.737a.521.521 0 0 0-.705.205L1.063 9.7a.52.52 0 0 0 .206.705l2.161 1.187a.52.52 0 0 0 .705-.205l.047-.085c.299.37.607.73.923 1.077a1.548 1.548 0 0 0 1.602 2.34 1.547 1.547 0 0 0 2.29 1.721 1.547 1.547 0 0 0 2.45 1.175 1.547 1.547 0 0 0 2.58 1.19c2.028.87 4.615 1.498 5.682-.436a2.062 2.062 0 0 0 2.197-1.684 1.993 1.993 0 0 0 1.73-2.285 1.907 1.907 0 0 0 1.453-1.996 20.34 20.34 0 0 0 2.438-1.633l.338.616a.52.52 0 0 0 .705.205l2.16-1.187a.52.52 0 0 0 .206-.705Zm-27.461.731-1.251-.687 4.309-7.847 1.25.687-4.298 7.83-.01.017Zm2.548 2.432.868-1.06a.519.519 0 0 1 .804.658l-.87 1.06c-.406.496-1.223-.141-.802-.658Zm1.786 1.915 1.974-2.41a.519.519 0 0 1 .803.659l-1.974 2.409a.519.519 0 0 1-.803-.658Zm2.336 1.243 1.316-1.606a.519.519 0 0 1 .803.658l-1.316 1.606a.519.519 0 0 1-.803-.658Zm2.45 1.291.546-.666a.52.52 0 0 1 .803.658l-.546.666a.519.519 0 0 1-.802-.657Zm9.71-4.147-3.913-2.291a.519.519 0 0 0-.525.896l3.912 2.29c.248.146.515.255.794.325a.964.964 0 0 1-.828 1.274l-3.818-2.044a.52.52 0 0 0-.49.915l3.467 1.856a1.067 1.067 0 0 1-1.282.94l-2.919-1.3a.52.52 0 0 0-.422.95l2.4 1.067c-.777 1.02-2.752.41-3.943-.07l.01-.01a1.55 1.55 0 0 0-1.502-2.508 1.552 1.552 0 0 0-1.595-2.248A1.557 1.557 0 0 0 8.98 11.71l-.154.188a1.552 1.552 0 0 0-2.737-.754l-.332.405c-.356-.399-.7-.812-1.033-1.237l3.4-6.191c.954.547 1.485.564 2.72.875l-1.69 2.335a1.039 1.039 0 0 0 .752 1.643 5.502 5.502 0 0 0 4.829-2.038 3.38 3.38 0 0 0 1.511.009c1.58.812 7.136 3.8 7.784 5.456.204.522-.52 1.472-1.726.763Zm2.379-1.727c-1.118-1.67-7.56-5.536-8.48-5.536l-.002-.008a2.408 2.408 0 0 1-1.507-.053.528.528 0 0 0-.633.226A4.363 4.363 0 0 1 9.996 7.94l2.79-3.856a.701.701 0 0 1 .452-.278c3.406-.537 5.841-.521 7.279.066a3.794 3.794 0 0 0 3.24.034l3.263 5.942c-.739.586-1.52 1.117-2.336 1.59Zm3.841-1.007-4.309-7.847 1.251-.687 4.31 7.847-1.252.687Z" stroke="#6C23E2" stroke-width=".3" mask="url('#path-1-outside-1_1006_2161')"/></svg>